<mxfile host="Electron" compressed="false" modified="2022-05-05T14:36:51.889Z" agent="5.0 (Windows NT 10.0; Win64; x64) AppleWebKit/537.36 (KHTML, like Gecko) draw.io/16.5.1 Chrome/96.0.4664.110 Electron/16.0.7 Safari/537.36" etag="7HRaqQrv8akHZWG8AmG0" version="16.5.1" type="device">
  <diagram id="ETWsS70P1tHz5V-jA7J0" name="Page-1">
    <mxGraphModel dx="1102" dy="875" grid="1" gridSize="10" guides="1" tooltips="1" connect="1" arrows="1" fold="1" page="1" pageScale="1" pageWidth="827" pageHeight="1169" math="0" shadow="0">
      <root>
        <mxCell id="0" />
        <mxCell id="1" parent="0" />
        <mxCell id="qZ7mvPWVtpQdx_aLzNMV-39" style="edgeStyle=orthogonalEdgeStyle;rounded=0;orthogonalLoop=1;jettySize=auto;html=1;exitX=1;exitY=0.5;exitDx=0;exitDy=0;entryX=0.5;entryY=0;entryDx=0;entryDy=0;fontColor=#FFFFFF;startArrow=none;startFill=0;" parent="1" source="BewNrVXa_8q_rNuEyV7a-1" target="BewNrVXa_8q_rNuEyV7a-3" edge="1">
          <mxGeometry relative="1" as="geometry">
            <Array as="points">
              <mxPoint x="255" y="290" />
            </Array>
          </mxGeometry>
        </mxCell>
        <mxCell id="qZ7mvPWVtpQdx_aLzNMV-41" value="made" style="text;html=1;resizable=0;autosize=1;align=center;verticalAlign=middle;points=[];fillColor=none;strokeColor=none;rounded=0;fontColor=#000000;fontStyle=1" parent="1" vertex="1">
          <mxGeometry x="260" y="320" width="50" height="20" as="geometry" />
        </mxCell>
        <mxCell id="BewNrVXa_8q_rNuEyV7a-4" style="edgeStyle=orthogonalEdgeStyle;rounded=0;orthogonalLoop=1;jettySize=auto;html=1;exitX=0;exitY=0.5;exitDx=0;exitDy=0;entryX=0.5;entryY=0;entryDx=0;entryDy=0;" edge="1" parent="1" source="BewNrVXa_8q_rNuEyV7a-1" target="BewNrVXa_8q_rNuEyV7a-2">
          <mxGeometry relative="1" as="geometry" />
        </mxCell>
        <mxCell id="BewNrVXa_8q_rNuEyV7a-1" value="A" style="shape=process;whiteSpace=wrap;html=1;backgroundOutline=1;fillColor=#d5e8d4;strokeColor=#82b366;" vertex="1" parent="1">
          <mxGeometry x="150" y="270" width="70" height="40" as="geometry" />
        </mxCell>
        <mxCell id="BewNrVXa_8q_rNuEyV7a-5" style="edgeStyle=orthogonalEdgeStyle;rounded=0;orthogonalLoop=1;jettySize=auto;html=1;exitX=1;exitY=0.5;exitDx=0;exitDy=0;entryX=0;entryY=0.5;entryDx=0;entryDy=0;" edge="1" parent="1" source="BewNrVXa_8q_rNuEyV7a-2" target="BewNrVXa_8q_rNuEyV7a-3">
          <mxGeometry relative="1" as="geometry" />
        </mxCell>
        <mxCell id="BewNrVXa_8q_rNuEyV7a-2" value="B" style="shape=process;whiteSpace=wrap;html=1;backgroundOutline=1;fillColor=#d5e8d4;strokeColor=#82b366;" vertex="1" parent="1">
          <mxGeometry x="80" y="370" width="70" height="40" as="geometry" />
        </mxCell>
        <mxCell id="BewNrVXa_8q_rNuEyV7a-3" value="C" style="shape=process;whiteSpace=wrap;html=1;backgroundOutline=1;fillColor=#d5e8d4;strokeColor=#82b366;" vertex="1" parent="1">
          <mxGeometry x="220" y="370" width="70" height="40" as="geometry" />
        </mxCell>
        <mxCell id="BewNrVXa_8q_rNuEyV7a-6" value="link" style="text;html=1;resizable=0;autosize=1;align=center;verticalAlign=middle;points=[];fillColor=none;strokeColor=none;rounded=0;fontColor=#000000;fontStyle=1" vertex="1" parent="1">
          <mxGeometry x="55" y="320" width="40" height="20" as="geometry" />
        </mxCell>
        <mxCell id="BewNrVXa_8q_rNuEyV7a-7" value="depend" style="text;html=1;resizable=0;autosize=1;align=center;verticalAlign=middle;points=[];fillColor=none;strokeColor=none;rounded=0;fontColor=#000000;fontStyle=1" vertex="1" parent="1">
          <mxGeometry x="150" y="360" width="60" height="20" as="geometry" />
        </mxCell>
      </root>
    </mxGraphModel>
  </diagram>
</mxfile>
